<svg width="4655" height="1024" viewBox="0 0 4655 1024" fill="none" xmlns="http://www.w3.org/2000/svg">
<path d="M2376.5 62.0007C2421 12.415 2520.5 0.000732422 2520.5 0.000732422H0V1023C0 1023 373 1025 452 931C531 837 740.5 905.999 922.5 952C1104.5 998.001 1330.5 944.501 1405 849.501C1479.5 754.501 1452 693.501 1479.5 626.001C1507 558.501 1644.5 475.501 1707.5 436.501C1770.5 397.501 1762.32 336.501 1818 271.001C1873.68 205.501 2122 211.001 2221.5 166.501C2321 122.001 2332 111.586 2376.5 62.0007Z" fill="#395BD8" fill-opacity="0.03"/>
<path d="M2285 46.5007C2325 9.99992 2384.5 0 2384.5 0H3.5V981C3.5 981 243 1019.5 396.5 884.5C550 749.5 815.5 871.699 943.5 899.5C1071.5 927.301 1233 901.5 1329.5 813C1426 724.5 1389.5 639.5 1441 548C1492.5 456.5 1527 446.5 1629 397.5C1731 348.5 1693 321.5 1769.5 221.5C1846 121.5 2078.5 153.999 2172.5 121.5C2266.5 89.0007 2245 83.0015 2285 46.5007Z" fill="#395BD8" fill-opacity="0.03"/>
</svg>
